# Blender 4.3.1
# www.blender.org
mtllib scene_around_busstop.mtl
o Plane
v -20.000000 0.000000 1.000000
v 20.000000 0.000000 1.000000
v -20.000000 0.000000 -10.000000
v 20.000000 0.000000 -10.000000
v -20.000000 8.000000 -10.000000
v 20.000000 8.000000 -10.000000
v -20.000000 -0.250000 1.000000
v 20.000000 -0.250000 1.000000
v -20.000000 -0.250000 11.000000
v 20.000000 -0.250000 11.000000
vn -0.0000 1.0000 -0.0000
vn -0.0000 -0.0000 1.0000
vt 0.000000 0.000000
vt 1.000000 0.000000
vt 1.000000 1.000000
vt 0.000000 1.000000
s 0
f 1/1/1 2/2/1 4/3/1 3/4/1
f 3/4/2 4/3/2 6/3/2 5/4/2
f 2/2/2 1/1/2 7/1/2 8/2/2
f 8/2/1 7/1/1 9/1/1 10/2/1
o Cube
v -4.000000 0.000000 -1.000000
v -4.000000 4.000000 -1.000000
v -4.000000 0.000000 -5.000000
v -4.000000 4.000000 -5.000000
v 4.000000 0.000000 -1.000000
v 4.000000 4.000000 -1.000000
v 4.000000 0.000000 -5.000000
v 4.000000 4.000000 -5.000000
v -3.913398 0.086603 -1.086603
v -4.086603 -0.086603 -0.913397
v -3.913398 3.913398 -1.086603
v -4.086603 4.086603 -0.913397
v -3.913398 0.086603 -4.913398
v -4.086603 -0.086603 -5.086602
v -3.913398 3.913398 -4.913398
v -4.086603 4.086603 -5.086602
v 3.913398 0.086603 -1.086603
v 4.086603 -0.086603 -0.913397
v 3.913398 3.913398 -1.086603
v 4.086603 4.086603 -0.913397
v 3.913398 0.086603 -4.913398
v 4.086603 -0.086603 -5.086602
v 3.913398 3.913398 -4.913398
v 4.086603 4.086603 -5.086602
v -4.000000 0.150000 -1.150000
v -4.000000 3.850000 -1.150000
v -4.000000 3.850000 -4.850000
v -4.000000 0.150000 -4.850000
v -3.850000 0.150000 -5.000000
v -3.850000 3.850000 -5.000000
v 3.850000 3.850000 -5.000000
v 3.850000 0.150000 -5.000000
v 4.000000 0.150000 -4.850000
v 4.000000 3.850000 -4.850000
v 4.000000 3.850000 -1.150000
v 4.000000 0.150000 -1.150000
v 3.850000 4.000000 -4.850000
v -3.850000 4.000000 -4.850000
v -3.850000 4.000000 -1.150000
v 3.850000 4.000000 -1.150000
v -3.850000 -0.048591 -1.000000
v 3.850000 -0.013183 -1.000000
v 3.850000 3.850000 -1.000000
v -3.850000 3.850000 -1.000000
v -3.850000 0.000000 -4.850000
v 3.850000 0.000000 -4.850000
v 3.850000 -0.091492 -1.150000
v -3.850000 -0.093445 -1.094221
v 3.848349 -0.091492 -1.075947
v 3.857125 -0.089114 -1.000107
v -3.858166 -0.076614 -1.015818
vn -1.0000 -0.0000 -0.0000
vn -0.0000 -0.0000 -1.0000
vn 1.0000 -0.0000 -0.0000
vn -0.0000 1.0000 -0.0000
vn 0.5907 -0.0000 -0.8069
vn -0.9391 -0.0000 -0.3437
vn 0.5907 -0.8069 -0.0000
vn -0.9391 -0.3437 -0.0000
vn 0.5907 -0.0000 0.8069
vn -0.9391 -0.0000 0.3437
vn 0.5907 0.8069 -0.0000
vn -0.9391 0.3437 -0.0000
vn 0.8069 -0.0000 0.5907
vn 0.3437 -0.0000 -0.9391
vn -0.0000 -0.8069 0.5907
vn -0.0000 -0.3437 -0.9391
vn -0.8069 -0.0000 0.5907
vn -0.3437 -0.0000 -0.9391
vn -0.0000 0.8069 0.5907
vn -0.0000 0.3437 -0.9391
vn -0.5907 -0.0000 0.8069
vn 0.9391 -0.0000 0.3437
vn -0.5907 -0.8069 -0.0000
vn 0.9391 -0.3437 -0.0000
vn -0.5907 -0.0000 -0.8069
vn 0.9391 -0.0000 -0.3437
vn -0.5907 0.8069 -0.0000
vn 0.9391 0.3437 -0.0000
vn -0.0000 -0.5907 0.8069
vn -0.0000 0.9391 0.3437
vn 0.8069 -0.5907 -0.0000
vn 0.3437 0.9391 -0.0000
vn -0.0000 -0.5907 -0.8069
vn -0.0000 0.9391 -0.3437
vn -0.8069 -0.5907 -0.0000
vn -0.3437 0.9391 -0.0000
vn -0.3529 -0.0344 0.9350
vn -0.8069 -0.0000 -0.5907
vn -0.3437 -0.0000 0.9391
vn -0.0000 -0.8069 -0.5907
vn -0.0000 -0.3437 0.9391
vn 0.8069 -0.0000 -0.5907
vn 0.3437 -0.0000 0.9391
vn -0.0000 0.5907 0.8069
vn -0.0000 -0.9391 0.3437
vn -0.9019 0.4320 0.0053
vn -0.1702 -0.9854 -0.0115
vn 0.1417 -0.9647 0.2219
vn 0.9027 0.4303 0.0053
vn 0.1675 -0.9858 -0.0116
vn 0.0100 -0.9998 0.0154
vn 0.3648 -0.5360 0.7613
vn 0.9550 0.2679 -0.1275
vn -0.9578 0.2103 -0.1960
vt 0.375000 0.000000
vt 0.625000 0.000000
vt 0.625000 0.250000
vt 0.375000 0.250000
vt 0.625000 0.500000
vt 0.375000 0.500000
vt 0.625000 0.750000
vt 0.375000 0.750000
vt 0.875000 0.500000
vt 0.875000 0.750000
vt 0.375000 0.726363
vt 0.375000 0.020962
vt 0.375000 0.749839
s 0
f 11/5/3 12/6/3 14/7/3 13/8/3
f 13/8/4 14/7/4 18/9/4 17/10/4
f 17/10/5 18/9/5 16/11/5 15/12/5
f 18/9/6 14/13/6 12/14/6 16/11/6
f 35/5/7 36/6/7 21/6/7 19/5/7
f 36/6/8 35/5/8 20/5/8 22/6/8
f 36/6/9 37/7/9 25/7/9 21/6/9
f 37/7/10 36/6/10 22/6/10 26/7/10
f 37/7/11 38/8/11 23/8/11 25/7/11
f 38/8/12 37/7/12 26/7/12 24/8/12
f 38/8/13 35/5/13 19/5/13 23/8/13
f 35/5/14 38/8/14 24/8/14 20/5/14
f 39/8/15 40/7/15 25/7/15 23/8/15
f 40/7/16 39/8/16 24/8/16 26/7/16
f 40/7/17 41/9/17 33/9/17 25/7/17
f 41/9/18 40/7/18 26/7/18 34/9/18
f 41/9/19 42/10/19 31/10/19 33/9/19
f 42/10/20 41/9/20 34/9/20 32/10/20
f 42/10/21 39/8/21 23/8/21 31/10/21
f 39/8/22 42/10/22 32/10/22 24/8/22
f 43/10/23 44/9/23 33/9/23 31/10/23
f 44/9/24 43/10/24 32/10/24 34/9/24
f 44/9/25 45/11/25 29/11/25 33/9/25
f 45/11/26 44/9/26 34/9/26 30/11/26
f 45/11/27 46/12/27 27/12/27 29/11/27
f 46/12/28 45/11/28 30/11/28 28/12/28
f 46/12/29 43/10/29 31/10/29 27/12/29
f 43/10/30 46/12/30 28/12/30 32/10/30
f 47/9/31 48/13/31 25/13/31 33/9/31
f 48/13/32 47/9/32 34/9/32 26/13/32
f 48/13/33 49/14/33 21/14/33 25/13/33
f 49/14/34 48/13/34 26/13/34 22/14/34
f 49/14/35 50/11/35 29/11/35 21/14/35
f 50/11/36 49/14/36 22/14/36 30/11/36
f 50/11/37 47/9/37 33/9/37 29/11/37
f 47/9/38 50/11/38 30/11/38 34/9/38
f 52/12/39 60/15/39 28/12/39
f 52/12/40 53/11/40 29/11/40 27/12/40
f 53/11/41 52/12/41 28/12/41 30/11/41
f 53/11/42 54/14/42 21/14/42 29/11/42
f 54/14/43 53/11/43 30/11/43 22/14/43
f 54/14/44 51/5/44 19/5/44 21/14/44
f 51/5/45 54/14/45 22/14/45 20/5/45
f 55/8/46 56/10/46 31/10/46 23/8/46
f 56/10/47 55/8/47 24/8/47 32/10/47
f 56/10/48 57/12/48 27/12/48 31/10/48
f 57/12/49 56/10/49 32/10/49 28/12/49
f 58/5/50 61/16/50 20/5/50
f 58/5/51 55/8/51 23/8/51 19/5/51
f 55/8/52 58/5/52 20/5/52 24/8/52
f 60/15/53 59/17/53 57/12/53 28/12/53
f 61/16/54 51/5/54 20/5/54
f 51/5/55 61/16/55 58/5/55 19/5/55
f 52/12/56 27/12/56 59/17/56 60/15/56
